P3
20 20
255
40 180 140
40 40 250
40 180 140
40 40 250
40 180 140
40 40 250
40 180 140
40 40 250
40 180 140
40 40 250
40 180 140
40 40 250
40 180 140
40 40 250
40 180 140
40 40 250
40 180 140
40 40 250
40 180 140
40 40 250
40 40 250
40 180 140
40 40 250
40 180 140
40 40 250
40 180 140
40 40 250
40 180 140
40 40 250
40 180 140
40 40 250
40 180 140
40 40 250
40 180 140
40 40 250
40 180 140
40 40 250
40 180 140
40 40 250
40 180 140
40 180 140
40 40 250
40 180 140
40 40 250
40 180 140
40 40 250
40 180 140
40 40 250
40 180 140
40 40 250
40 180 140
40 40 250
40 180 140
40 40 250
40 180 140
40 40 250
40 180 140
40 40 250
40 180 140
40 40 250
40 40 250
40 180 140
40 40 250
40 180 140
40 40 250
40 180 140
40 40 250
40 180 140
40 40 250
40 180 140
40 40 250
40 180 140
40 40 250
40 180 140
40 40 250
40 180 140
40 40 250
40 180 140
40 40 250
40 180 140
40 180 140
40 40 250
40 180 140
40 40 250
40 180 140
40 40 250
40 180 140
40 40 250
40 180 140
40 40 250
40 180 140
40 40 250
40 180 140
40 40 250
40 180 140
40 40 250
40 180 140
40 40 250
40 180 140
40 40 250
40 40 250
40 180 140
40 40 250
40 180 140
40 40 250
40 180 140
40 40 250
40 180 140
40 40 250
40 180 140
40 40 250
40 180 140
40 40 250
40 180 140
40 40 250
40 180 140
40 40 250
40 180 140
40 40 250
40 180 140
40 180 140
40 40 250
40 180 140
40 40 250
40 180 140
40 40 250
40 180 140
40 40 250
40 180 140
40 40 250
40 180 140
40 40 250
40 180 140
40 40 250
40 180 140
40 40 250
40 180 140
40 40 250
40 180 140
40 40 250
40 40 250
40 180 140
40 40 250
40 180 140
40 40 250
40 180 140
40 40 250
40 180 140
40 40 250
40 180 140
40 40 250
40 180 140
40 40 250
40 180 140
40 40 250
40 180 140
40 40 250
40 180 140
40 40 250
40 180 140
40 180 140
40 40 250
40 180 140
40 40 250
40 180 140
40 40 250
40 180 140
40 40 250
40 180 140
40 40 250
40 180 140
40 40 250
40 180 140
40 40 250
40 180 140
40 40 250
40 180 140
40 40 250
40 180 140
40 40 250
40 40 250
40 180 140
40 40 250
40 180 140
40 40 250
40 180 140
40 40 250
40 180 140
40 40 250
40 180 140
40 40 250
40 180 140
40 40 250
40 180 140
40 40 250
40 180 140
40 40 250
40 180 140
40 40 250
40 180 140
40 180 140
40 40 250
40 180 140
40 40 250
40 180 140
40 40 250
40 180 140
40 40 250
40 180 140
40 40 250
40 180 140
40 40 250
40 180 140
40 40 250
40 180 140
40 40 250
40 180 140
40 40 250
40 180 140
40 40 250
40 40 250
40 180 140
40 40 250
40 180 140
40 40 250
40 180 140
40 40 250
40 180 140
40 40 250
40 180 140
40 40 250
40 180 140
40 40 250
40 180 140
40 40 250
40 180 140
40 40 250
40 180 140
40 40 250
40 180 140
40 180 140
40 40 250
40 180 140
40 40 250
40 180 140
40 40 250
40 180 140
40 40 250
40 180 140
40 40 250
40 180 140
40 40 250
40 180 140
40 40 250
40 180 140
40 40 250
40 180 140
40 40 250
40 180 140
40 40 250
40 40 250
40 180 140
40 40 250
40 180 140
40 40 250
40 180 140
40 40 250
40 180 140
40 40 250
40 180 140
40 40 250
40 180 140
40 40 250
40 180 140
40 40 250
40 180 140
40 40 250
40 180 140
40 40 250
40 180 140
40 180 140
40 40 250
40 180 140
40 40 250
40 180 140
40 40 250
40 180 140
40 40 250
40 180 140
40 40 250
40 180 140
40 40 250
40 180 140
40 40 250
40 180 140
40 40 250
40 180 140
40 40 250
40 180 140
40 40 250
40 40 250
40 180 140
40 40 250
40 180 140
40 40 250
40 180 140
40 40 250
40 180 140
40 40 250
40 180 140
40 40 250
40 180 140
40 40 250
40 180 140
40 40 250
40 180 140
40 40 250
40 180 140
40 40 250
40 180 140
40 180 140
40 40 250
40 180 140
40 40 250
40 180 140
40 40 250
40 180 140
40 40 250
40 180 140
40 40 250
40 180 140
40 40 250
40 180 140
40 40 250
40 180 140
40 40 250
40 180 140
40 40 250
40 180 140
40 40 250
40 40 250
40 180 140
40 40 250
40 180 140
40 40 250
40 180 140
40 40 250
40 180 140
40 40 250
40 180 140
40 40 250
40 180 140
40 40 250
40 180 140
40 40 250
40 180 140
40 40 250
40 180 140
40 40 250
40 180 140
40 180 140
40 40 250
40 180 140
40 40 250
40 180 140
40 40 250
40 180 140
40 40 250
40 180 140
40 40 250
40 180 140
40 40 250
40 180 140
40 40 250
40 180 140
40 40 250
40 180 140
40 40 250
40 180 140
40 40 250
40 40 250
40 180 140
40 40 250
40 180 140
40 40 250
40 180 140
40 40 250
40 180 140
40 40 250
40 180 140
40 40 250
40 180 140
40 40 250
40 180 140
40 40 250
40 180 140
40 40 250
40 180 140
40 40 250
40 180 140
